<svg xmlns="http://www.w3.org/2000/svg" xmlns:xlink="http://www.w3.org/1999/xlink" x="0" y="0" enable-background="new 0 0 120 120" version="1.1" viewBox="0 0 120 120" xml:space="preserve"><g id="Ellipse_1_copy_4_1_"><g id="Ellipse_1_copy_4"><g><path fill="#1CCAFF" fill-rule="evenodd" d="M120,60c0-8.7-5.1-16.2-12.5-19.7c2.7-7.7,1.1-16.5-5.1-22.7 c-6.1-6.1-15-7.8-22.7-5.1C76.2,5.1,68.7,0,60,0c-8.7,0-16.2,5.1-19.7,12.5c-7.7-2.8-16.6-1.1-22.7,5.1s-7.8,15.1-5.1,22.7 C5.1,43.8,0,51.3,0,60c0,8.7,5.1,16.2,12.6,19.7c-2.7,7.7-1,16.5,5.1,22.7s15,7.8,22.7,5.1c3.5,7.4,11,12.6,19.7,12.6 c8.7,0,16.2-5.1,19.7-12.5c7.7,2.8,16.6,1.1,22.7-5.1s7.8-15.1,5.1-22.7C114.9,76.2,120,68.7,120,60z" clip-rule="evenodd"/></g></g></g><g id="Rectangle_1_copy_1_"><g id="Rectangle_1_copy"><g><polygon fill="#FFFFFD" fill-rule="evenodd" points="93.8 46.7 83.1 36 54.7 64.4 36.7 46.4 26.1 57 54.8 85.6 56.4 84 56.4 84" clip-rule="evenodd"/></g></g></g></svg>