<svg xmlns="http://www.w3.org/2000/svg" xmlns:xlink="http://www.w3.org/1999/xlink" id="YouTube_Icon" x="0" y="0" enable-background="new 0 0 1024 721" version="1.1" viewBox="0 0 1024 721" xml:space="preserve"><path id="The_Sharpness" fill-rule="evenodd" d="M407,206l242,161.6l34-17.6L407,206z" clip-rule="evenodd" opacity=".12"/><g id="Lozenge"><g><path fill="#FFF" d="M855.1,220.7c0,0-6.8-48.2-27.8-69.4c-26.6-27.9-56.4-28-70.1-29.6c-97.8-7.1-244.6-7.1-244.6-7.1h-0.3 c0,0-146.8,0-244.6,7.1c-13.7,1.6-43.5,1.8-70.1,29.6c-21,21.2-27.8,69.4-27.8,69.4s-7,56.6-7,113.2v53c0,56.6,7,113.2,7,113.2 s6.8,48.2,27.8,69.4c26.6,27.9,61.5,27,77.1,29.9c55.9,5.4,237.7,7,237.7,7s146.9-0.2,244.8-7.3c13.7-1.6,43.5-1.8,70.1-29.6 c21-21.2,27.8-69.4,27.8-69.4s7-56.6,7-113.2v-53C862.1,277.3,855.1,220.7,855.1,220.7z M440.3,451.2l0-196.5l188.9,98.6 L440.3,451.2z"/></g></g></svg>